# xmcd
#
# Track frame offsets:
# 150
# 17312
# 37640
# 66738
# 81955
# 99595
# 115883
# 137148
# 155674
# 171996
# 190751
# 208548
#
# Disc length: 2979 seconds
#
#
# Revision: 0
# Processed by: cddbd v1.5.1PL2 Copyright (c) Steve Scherf et al.
# Submitted via: FreeRIP 2.945 
#
DISCID=9e0ba10c
DTITLE=Fiona Apple - Extraordinary Machine
DYEAR=2005
DGENRE=Rock
TTITLE0=Extraordinary Machine
TTITLE1=Get Him Back
TTITLE2=O' Sailor
TTITLE3=Better Version Of Me
TTITLE4=Tymps (The Sick In The Head Song)
TTITLE5=Parting Gift
TTITLE6=Window
TTITLE7=Oh Well
TTITLE8=Please Please Please
TTITLE9=Red Red Red
TTITLE10=Not About Love
TTITLE11=Waltz (Better Than Fine)
EXTD=
EXTT0=
EXTT1=
EXTT2=
EXTT3=
EXTT4=
EXTT5=
EXTT6=
EXTT7=
EXTT8=
EXTT9=
EXTT10=
EXTT11=
PLAYORDER=
